<?xml version="1.0" encoding="us-ascii" standalone="no"?><svg xmlns="http://www.w3.org/2000/svg" xmlns:xlink="http://www.w3.org/1999/xlink" contentStyleType="text/css" height="1173px" preserveAspectRatio="none" style="width:3829px;height:1173px;background:#FFFFFF;" version="1.1" viewBox="0 0 3829 1173" width="3829px" zoomAndPan="magnify"><defs/><g><!--cluster Diaries--><g id="cluster_Diaries"><path d="M2514.5,624.97 L2569.5,624.97 A3.75,3.75 0 0 1 2572,627.47 L2579,647.2669 L2920.5,647.2669 A2.5,2.5 0 0 1 2923,649.7669 L2923,1140.03 A2.5,2.5 0 0 1 2920.5,1142.53 L2514.5,1142.53 A2.5,2.5 0 0 1 2512,1140.03 L2512,627.47 A2.5,2.5 0 0 1 2514.5,624.97 " fill="none" style="stroke:#000000;stroke-width:1.5;"/><line style="stroke:#000000;stroke-width:1.5;" x1="2512" x2="2579" y1="647.2669" y2="647.2669"/><text fill="#000000" font-family="sans-serif" font-size="14" font-weight="bold" lengthAdjust="spacing" textLength="54" x="2516" y="639.9651">Diaries</text></g><!--cluster External--><g id="cluster_External"><path d="M2957.5,838.45 L3061.5,838.45 A3.75,3.75 0 0 1 3064,840.95 L3071,860.7469 L3697.5,860.7469 A2.5,2.5 0 0 1 3700,863.2469 L3700,977.84 A2.5,2.5 0 0 1 3697.5,980.34 L2957.5,980.34 A2.5,2.5 0 0 1 2955,977.84 L2955,840.95 A2.5,2.5 0 0 1 2957.5,838.45 " fill="none" style="stroke:#000000;stroke-width:1.5;"/><line style="stroke:#000000;stroke-width:1.5;" x1="2955" x2="3071" y1="860.7469" y2="860.7469"/><text fill="#000000" font-family="sans-serif" font-size="14" font-weight="bold" lengthAdjust="spacing" textLength="103" x="2959" y="853.4451">External data</text></g><!--cluster Container--><g id="cluster_Container"><path d="M8.5,6 L86.5,6 A3.75,3.75 0 0 1 89,8.5 L96,28.2969 L2485.5,28.2969 A2.5,2.5 0 0 1 2488,30.7969 L2488,1164.03 A2.5,2.5 0 0 1 2485.5,1166.53 L8.5,1166.53 A2.5,2.5 0 0 1 6,1164.03 L6,8.5 A2.5,2.5 0 0 1 8.5,6 " fill="none" style="stroke:#000000;stroke-width:1.5;"/><line style="stroke:#000000;stroke-width:1.5;" x1="6" x2="96" y1="28.2969" y2="28.2969"/><text fill="#000000" font-family="sans-serif" font-size="14" font-weight="bold" lengthAdjust="spacing" textLength="77" x="10" y="20.9951">Container</text></g><!--cluster WA_Region--><g id="cluster_WA_Region"><path d="M1589.5,49 L1735.5,49 A3.75,3.75 0 0 1 1738,51.5 L1745,71.2969 L2215.5,71.2969 A2.5,2.5 0 0 1 2218,73.7969 L2218,772.8 A2.5,2.5 0 0 1 2215.5,775.3 L1589.5,775.3 A2.5,2.5 0 0 1 1587,772.8 L1587,51.5 A2.5,2.5 0 0 1 1589.5,49 " fill="none" style="stroke:#000000;stroke-width:1.5;"/><line style="stroke:#000000;stroke-width:1.5;" x1="1587" x2="1745" y1="71.2969" y2="71.2969"/><text fill="#000000" font-family="sans-serif" font-size="14" font-weight="bold" lengthAdjust="spacing" textLength="145" x="1591" y="63.9951">Region Annotation</text></g><!--cluster WA_Line--><g id="cluster_WA_Line"><path d="M1004.5,357.78 L1129.5,357.78 A3.75,3.75 0 0 1 1132,360.28 L1139,380.0769 L1560.5,380.0769 A2.5,2.5 0 0 1 1563,382.5769 L1563,1140.03 A2.5,2.5 0 0 1 1560.5,1142.53 L1004.5,1142.53 A2.5,2.5 0 0 1 1002,1140.03 L1002,360.28 A2.5,2.5 0 0 1 1004.5,357.78 " fill="none" style="stroke:#000000;stroke-width:1.5;"/><line style="stroke:#000000;stroke-width:1.5;" x1="1002" x2="1139" y1="380.0769" y2="380.0769"/><text fill="#000000" font-family="sans-serif" font-size="14" font-weight="bold" lengthAdjust="spacing" textLength="124" x="1006" y="372.7751">Line Annotation</text></g><!--cluster WA_Entry--><g id="cluster_WA_Entry"><path d="M2244.5,57.15 L2422.5,57.15 A3.75,3.75 0 0 1 2425,59.65 L2432,79.4469 L2461.5,79.4469 A2.5,2.5 0 0 1 2464,81.9469 L2464,180.54 A2.5,2.5 0 0 1 2461.5,183.04 L2244.5,183.04 A2.5,2.5 0 0 1 2242,180.54 L2242,59.65 A2.5,2.5 0 0 1 2244.5,57.15 " fill="none" style="stroke:#000000;stroke-width:1.5;"/><line style="stroke:#000000;stroke-width:1.5;" x1="2242" x2="2432" y1="79.4469" y2="79.4469"/><text fill="#000000" font-family="sans-serif" font-size="14" font-weight="bold" lengthAdjust="spacing" textLength="177" x="2246" y="72.1451">Diary Entry Annotation</text></g><!--cluster WA_Entity--><g id="cluster_WA_Entity"><path d="M32.5,65.3 L168.5,65.3 A3.75,3.75 0 0 1 171,67.8 L178,87.5969 L975.5,87.5969 A2.5,2.5 0 0 1 978,90.0969 L978,764.65 A2.5,2.5 0 0 1 975.5,767.15 L32.5,767.15 A2.5,2.5 0 0 1 30,764.65 L30,67.8 A2.5,2.5 0 0 1 32.5,65.3 " fill="none" style="stroke:#000000;stroke-width:1.5;"/><line style="stroke:#000000;stroke-width:1.5;" x1="30" x2="178" y1="87.5969" y2="87.5969"/><text fill="#000000" font-family="sans-serif" font-size="14" font-weight="bold" lengthAdjust="spacing" textLength="135" x="34" y="80.2951">Entity Annotation</text></g><!--class Diary--><g id="elem_Diary"><rect codeLine="19" fill="#FA8072" height="107.4844" id="Diary" rx="2.5" ry="2.5" style="stroke:#181818;stroke-width:0.5;" width="244" x="2551" y="659.97"/><text fill="#000000" font-family="sans-serif" font-size="14" lengthAdjust="spacing" textLength="144" x="2601" y="677.9651">Diary (schema:Book)</text><line style="stroke:#181818;stroke-width:0.5;" x1="2552" x2="2794" y1="686.2669" y2="686.2669"/><ellipse cx="2562" cy="699.9153" fill="#000000" rx="3" ry="3" style="stroke:#000000;stroke-width:1.0;"/><text fill="#000000" font-family="sans-serif" font-size="14" lengthAdjust="spacing" textLength="23" x="2571" y="703.262">URI</text><line style="stroke:#181818;stroke-width:1.0;" x1="2552" x2="2794" y1="710.5638" y2="710.5638"/><text fill="#000000" font-family="sans-serif" font-size="14" lengthAdjust="spacing" textLength="152" x="2557" y="727.5589">name (schema:name)</text><text fill="#000000" font-family="sans-serif" font-size="14" lengthAdjust="spacing" textLength="164" x="2557" y="743.8557">author (schema:author)</text><text fill="#000000" font-family="sans-serif" font-size="14" lengthAdjust="spacing" textLength="232" x="2557" y="760.1526">date (schema:temporalCoverage)</text></g><!--class Entry--><g id="elem_Entry"><rect codeLine="27" fill="#D8BFD8" height="91.1875" id="Entry" rx="2.5" ry="2.5" style="stroke:#181818;stroke-width:0.5;" width="244" x="2528" y="1035.34"/><text fill="#000000" font-family="sans-serif" font-size="14" lengthAdjust="spacing" textLength="200" x="2550" y="1053.3351">Entry (schema:CreativeWork)</text><line style="stroke:#181818;stroke-width:0.5;" x1="2529" x2="2771" y1="1061.6369" y2="1061.6369"/><ellipse cx="2539" cy="1075.2853" fill="#000000" rx="3" ry="3" style="stroke:#000000;stroke-width:1.0;"/><text fill="#000000" font-family="sans-serif" font-size="14" lengthAdjust="spacing" textLength="23" x="2548" y="1078.632">URI</text><line style="stroke:#181818;stroke-width:1.0;" x1="2529" x2="2771" y1="1085.9338" y2="1085.9338"/><text fill="#000000" font-family="sans-serif" font-size="14" lengthAdjust="spacing" textLength="152" x="2534" y="1102.9289">name (schema:name)</text><text fill="#000000" font-family="sans-serif" font-size="14" lengthAdjust="spacing" textLength="232" x="2534" y="1119.2257">date (schema:temporalCoverage)</text></g><!--class Scan--><g id="elem_Scan"><rect codeLine="34" fill="#90EE90" height="74.8906" id="Scan" rx="2.5" ry="2.5" style="stroke:#181818;stroke-width:0.5;" width="201" x="2705.5" y="881.45"/><text fill="#000000" font-family="sans-serif" font-size="14" lengthAdjust="spacing" textLength="195" x="2708.5" y="899.4451">Scan (schema:ImageObject)</text><line style="stroke:#181818;stroke-width:0.5;" x1="2706.5" x2="2905.5" y1="907.7469" y2="907.7469"/><ellipse cx="2716.5" cy="921.3953" fill="#000000" rx="3" ry="3" style="stroke:#000000;stroke-width:1.0;"/><text fill="#000000" font-family="sans-serif" font-size="14" lengthAdjust="spacing" textLength="23" x="2725.5" y="924.742">URI</text><line style="stroke:#181818;stroke-width:1.0;" x1="2706.5" x2="2905.5" y1="932.0438" y2="932.0438"/><text fill="#000000" font-family="sans-serif" font-size="14" lengthAdjust="spacing" textLength="152" x="2711.5" y="949.0389">name (schema:name)</text></g><!--class Person--><g id="elem_Person"><rect codeLine="48" fill="#8FBC8F" height="74.8906" id="Person" rx="2.5" ry="2.5" style="stroke:#181818;stroke-width:0.5;" width="178" x="2979" y="881.45"/><text fill="#000000" font-family="sans-serif" font-size="14" lengthAdjust="spacing" textLength="172" x="2982" y="899.4451">Person (schema:Person)</text><line style="stroke:#181818;stroke-width:0.5;" x1="2980" x2="3156" y1="907.7469" y2="907.7469"/><ellipse cx="2990" cy="921.3953" fill="#000000" rx="3" ry="3" style="stroke:#000000;stroke-width:1.0;"/><text fill="#000000" font-family="sans-serif" font-size="14" lengthAdjust="spacing" textLength="23" x="2999" y="924.742">URI</text><line style="stroke:#181818;stroke-width:1.0;" x1="2980" x2="3156" y1="932.0438" y2="932.0438"/><text fill="#000000" font-family="sans-serif" font-size="14" lengthAdjust="spacing" textLength="4" x="2985" y="949.0389">&#160;</text></g><!--class Location--><g id="elem_Location"><rect codeLine="55" fill="#8FBC8F" height="74.8906" id="Location" rx="2.5" ry="2.5" style="stroke:#181818;stroke-width:0.5;" width="175" x="3192.5" y="881.45"/><text fill="#000000" font-family="sans-serif" font-size="14" lengthAdjust="spacing" textLength="169" x="3195.5" y="899.4451">Location (schema:Place)</text><line style="stroke:#181818;stroke-width:0.5;" x1="3193.5" x2="3366.5" y1="907.7469" y2="907.7469"/><ellipse cx="3203.5" cy="921.3953" fill="#000000" rx="3" ry="3" style="stroke:#000000;stroke-width:1.0;"/><text fill="#000000" font-family="sans-serif" font-size="14" lengthAdjust="spacing" textLength="23" x="3212.5" y="924.742">URI</text><line style="stroke:#181818;stroke-width:1.0;" x1="3193.5" x2="3366.5" y1="932.0438" y2="932.0438"/><text fill="#000000" font-family="sans-serif" font-size="14" lengthAdjust="spacing" textLength="4" x="3198.5" y="949.0389">&#160;</text></g><!--class Organization--><g id="elem_Organization"><rect codeLine="61" fill="#8FBC8F" height="74.8906" id="Organization" rx="2.5" ry="2.5" style="stroke:#181818;stroke-width:0.5;" width="254" x="3403" y="881.45"/><text fill="#000000" font-family="sans-serif" font-size="14" lengthAdjust="spacing" textLength="248" x="3406" y="899.4451">Organization (schema:Organization)</text><line style="stroke:#181818;stroke-width:0.5;" x1="3404" x2="3656" y1="907.7469" y2="907.7469"/><ellipse cx="3414" cy="921.3953" fill="#000000" rx="3" ry="3" style="stroke:#000000;stroke-width:1.0;"/><text fill="#000000" font-family="sans-serif" font-size="14" lengthAdjust="spacing" textLength="23" x="3423" y="924.742">URI</text><line style="stroke:#181818;stroke-width:1.0;" x1="3404" x2="3656" y1="932.0438" y2="932.0438"/><text fill="#000000" font-family="sans-serif" font-size="14" lengthAdjust="spacing" textLength="4" x="3409" y="949.0389">&#160;</text></g><!--class Annotation_Region--><g id="elem_Annotation_Region"><rect codeLine="75" fill="#C0C0C0" height="91.1875" id="Annotation_Region" rx="2.5" ry="2.5" style="stroke:#181818;stroke-width:0.5;" width="174" x="1657" y="84"/><text fill="#000000" font-family="sans-serif" font-size="14" lengthAdjust="spacing" textLength="138" x="1675" y="101.9951">Annotation (Region)</text><line style="stroke:#181818;stroke-width:0.5;" x1="1658" x2="1830" y1="110.2969" y2="110.2969"/><ellipse cx="1668" cy="123.9453" fill="#000000" rx="3" ry="3" style="stroke:#000000;stroke-width:1.0;"/><text fill="#000000" font-family="sans-serif" font-size="14" lengthAdjust="spacing" textLength="23" x="1677" y="127.292">URI</text><line style="stroke:#181818;stroke-width:1.0;" x1="1658" x2="1830" y1="134.5938" y2="134.5938"/><text fill="#000000" font-family="sans-serif" font-size="14" lengthAdjust="spacing" textLength="162" x="1663" y="151.5889">textGranularity: "region"</text><text fill="#000000" font-family="sans-serif" font-size="14" lengthAdjust="spacing" textLength="132" x="1663" y="167.8857">motivation: tagging</text></g><!--class SpecificResource_Region_Body--><g id="elem_SpecificResource_Region_Body"><rect codeLine="82" fill="#C0C0C0" height="58.5938" id="SpecificResource_Region_Body" rx="2.5" ry="2.5" style="stroke:#181818;stroke-width:0.5;" width="282" x="1603" y="409.08"/><text fill="#000000" font-family="sans-serif" font-size="14" lengthAdjust="spacing" textLength="276" x="1606" y="427.0751">SpecificResource (oa:SpecificResource)</text><line style="stroke:#181818;stroke-width:0.5;" x1="1604" x2="1884" y1="435.3769" y2="435.3769"/><line style="stroke:#181818;stroke-width:1.0;" x1="1604" x2="1884" y1="443.3769" y2="443.3769"/><text fill="#000000" font-family="sans-serif" font-size="14" lengthAdjust="spacing" textLength="177" x="1609" y="460.372">purpose (oa:hasPurpose)</text></g><!--class SpecificResource_Region_Target--><g id="elem_SpecificResource_Region_Target"><rect codeLine="87" fill="#C0C0C0" height="58.5938" id="SpecificResource_Region_Target" rx="2.5" ry="2.5" style="stroke:#181818;stroke-width:0.5;" width="282" x="1920" y="409.08"/><text fill="#000000" font-family="sans-serif" font-size="14" lengthAdjust="spacing" textLength="276" x="1923" y="427.0751">SpecificResource (oa:SpecificResource)</text><line style="stroke:#181818;stroke-width:0.5;" x1="1921" x2="2201" y1="435.3769" y2="435.3769"/><line style="stroke:#181818;stroke-width:1.0;" x1="1921" x2="2201" y1="443.3769" y2="443.3769"/><text fill="#000000" font-family="sans-serif" font-size="14" lengthAdjust="spacing" textLength="177" x="1926" y="460.372">purpose (oa:hasPurpose)</text></g><!--class Selector_Region--><g id="elem_Selector_Region"><rect codeLine="92" fill="#C0C0C0" height="91.1875" id="Selector_Region" rx="2.5" ry="2.5" style="stroke:#181818;stroke-width:0.5;" width="254" x="1934" y="668.12"/><text fill="#000000" font-family="sans-serif" font-size="14" lengthAdjust="spacing" textLength="150" x="1986" y="686.1151">Selector (oa:Selector)</text><line style="stroke:#181818;stroke-width:0.5;" x1="1935" x2="2187" y1="694.4169" y2="694.4169"/><line style="stroke:#181818;stroke-width:1.0;" x1="1935" x2="2187" y1="702.4169" y2="702.4169"/><text fill="#000000" font-family="sans-serif" font-size="14" lengthAdjust="spacing" textLength="242" x="1940" y="719.412">conformsTo (dcterms:conformsTo)</text><text fill="#000000" font-family="sans-serif" font-size="14" lengthAdjust="spacing" textLength="109" x="1940" y="735.7089">value (rdf:value)</text><text fill="#000000" font-family="sans-serif" font-size="14" lengthAdjust="spacing" textLength="4" x="1940" y="752.0057">&#160;</text></g><!--class Source_Tag_Region--><g id="elem_Source_Tag_Region"><rect codeLine="105" fill="#ADD8E6" height="74.8906" id="Source_Tag_Region" rx="2.5" ry="2.5" style="stroke:#181818;stroke-width:0.5;" width="190" x="1649" y="676.26"/><text fill="#000000" font-family="sans-serif" font-size="14" lengthAdjust="spacing" textLength="170" x="1659" y="694.2551">Concept (skos:Concept)</text><line style="stroke:#181818;stroke-width:0.5;" x1="1650" x2="1838" y1="702.5569" y2="702.5569"/><ellipse cx="1660" cy="716.2053" fill="#000000" rx="3" ry="3" style="stroke:#000000;stroke-width:1.0;"/><text fill="#000000" font-family="sans-serif" font-size="14" lengthAdjust="spacing" textLength="23" x="1669" y="719.552">URI</text><line style="stroke:#181818;stroke-width:1.0;" x1="1650" x2="1838" y1="726.8538" y2="726.8538"/><text fill="#000000" font-family="sans-serif" font-size="14" lengthAdjust="spacing" textLength="178" x="1655" y="743.8489">prefLabel (skos:prefLabel)</text></g><!--class Annotation_Line--><g id="elem_Annotation_Line"><rect codeLine="117" fill="#C0C0C0" height="91.1875" id="Annotation_Line" rx="2.5" ry="2.5" style="stroke:#181818;stroke-width:0.5;" width="206" x="1303" y="392.78"/><text fill="#000000" font-family="sans-serif" font-size="14" lengthAdjust="spacing" textLength="117" x="1347.5" y="410.7751">Annotation (Line)</text><line style="stroke:#181818;stroke-width:0.5;" x1="1304" x2="1508" y1="419.0769" y2="419.0769"/><ellipse cx="1314" cy="432.7253" fill="#000000" rx="3" ry="3" style="stroke:#000000;stroke-width:1.0;"/><text fill="#000000" font-family="sans-serif" font-size="14" lengthAdjust="spacing" textLength="23" x="1323" y="436.072">URI</text><line style="stroke:#181818;stroke-width:1.0;" x1="1304" x2="1508" y1="443.3738" y2="443.3738"/><text fill="#000000" font-family="sans-serif" font-size="14" lengthAdjust="spacing" textLength="142" x="1309" y="460.3689">textGranularity: "line"</text><text fill="#000000" font-family="sans-serif" font-size="14" lengthAdjust="spacing" textLength="194" x="1309" y="476.6657">motivation: "supplementing"</text></g><!--class TextualBody_Line--><g id="elem_TextualBody_Line"><rect codeLine="124" fill="#C0C0C0" height="58.5938" id="TextualBody_Line" rx="2.5" ry="2.5" style="stroke:#181818;stroke-width:0.5;" width="212" x="1018" y="684.41"/><text fill="#000000" font-family="sans-serif" font-size="14" lengthAdjust="spacing" textLength="206" x="1021" y="702.4051">TextualBody (oa:TextualBody)</text><line style="stroke:#181818;stroke-width:0.5;" x1="1019" x2="1229" y1="710.7069" y2="710.7069"/><line style="stroke:#181818;stroke-width:1.0;" x1="1019" x2="1229" y1="718.7069" y2="718.7069"/><text fill="#000000" font-family="sans-serif" font-size="14" lengthAdjust="spacing" textLength="177" x="1024" y="735.702">purpose (oa:hasPurpose)</text></g><!--class SpecificResource_Line--><g id="elem_SpecificResource_Line"><rect codeLine="131" fill="#C0C0C0" height="42.2969" id="SpecificResource_Line" rx="2.5" ry="2.5" style="stroke:#181818;stroke-width:0.5;" width="282" x="1265" y="692.56"/><text fill="#000000" font-family="sans-serif" font-size="14" lengthAdjust="spacing" textLength="276" x="1268" y="710.5551">SpecificResource (oa:SpecificResource)</text><line style="stroke:#181818;stroke-width:0.5;" x1="1266" x2="1546" y1="718.8569" y2="718.8569"/><line style="stroke:#181818;stroke-width:1.0;" x1="1266" x2="1546" y1="726.8569" y2="726.8569"/></g><!--class Selector_Line--><g id="elem_Selector_Line"><rect codeLine="135" fill="#C0C0C0" height="91.1875" id="Selector_Line" rx="2.5" ry="2.5" style="stroke:#181818;stroke-width:0.5;" width="254" x="1279" y="1035.34"/><text fill="#000000" font-family="sans-serif" font-size="14" lengthAdjust="spacing" textLength="150" x="1331" y="1053.3351">Selector (oa:Selector)</text><line style="stroke:#181818;stroke-width:0.5;" x1="1280" x2="1532" y1="1061.6369" y2="1061.6369"/><line style="stroke:#181818;stroke-width:1.0;" x1="1280" x2="1532" y1="1069.6369" y2="1069.6369"/><text fill="#000000" font-family="sans-serif" font-size="14" lengthAdjust="spacing" textLength="242" x="1285" y="1086.632">conformsTo (dcterms:conformsTo)</text><text fill="#000000" font-family="sans-serif" font-size="14" lengthAdjust="spacing" textLength="109" x="1285" y="1102.9289">value (rdf:value)</text><text fill="#000000" font-family="sans-serif" font-size="14" lengthAdjust="spacing" textLength="4" x="1285" y="1119.2257">&#160;</text></g><!--class Annotation_Entry--><g id="elem_Annotation_Entry"><rect codeLine="154" fill="#C0C0C0" height="74.8906" id="Annotation_Entry" rx="2.5" ry="2.5" style="stroke:#181818;stroke-width:0.5;" width="189" x="2258.5" y="92.15"/><text fill="#000000" font-family="sans-serif" font-size="14" lengthAdjust="spacing" textLength="124" x="2291" y="110.1451">Annotation (Entry)</text><line style="stroke:#181818;stroke-width:0.5;" x1="2259.5" x2="2446.5" y1="118.4469" y2="118.4469"/><ellipse cx="2269.5" cy="132.0953" fill="#000000" rx="3" ry="3" style="stroke:#000000;stroke-width:1.0;"/><text fill="#000000" font-family="sans-serif" font-size="14" lengthAdjust="spacing" textLength="23" x="2278.5" y="135.442">URI</text><line style="stroke:#181818;stroke-width:1.0;" x1="2259.5" x2="2446.5" y1="142.7437" y2="142.7437"/><text fill="#000000" font-family="sans-serif" font-size="14" lengthAdjust="spacing" textLength="177" x="2264.5" y="159.7389">motivation: "classification"</text></g><!--class Annotation_Entity--><g id="elem_Annotation_Entity"><rect codeLine="167" fill="#C0C0C0" height="58.5938" id="Annotation_Entity" rx="2.5" ry="2.5" style="stroke:#181818;stroke-width:0.5;" width="192" x="408" y="100.3"/><text fill="#000000" font-family="sans-serif" font-size="14" lengthAdjust="spacing" textLength="186" x="411" y="118.2951">Annotation (oa:Annotation)</text><line style="stroke:#181818;stroke-width:0.5;" x1="409" x2="599" y1="126.5969" y2="126.5969"/><ellipse cx="419" cy="140.2453" fill="#000000" rx="3" ry="3" style="stroke:#000000;stroke-width:1.0;"/><text fill="#000000" font-family="sans-serif" font-size="14" lengthAdjust="spacing" textLength="23" x="428" y="143.592">URI</text><line style="stroke:#181818;stroke-width:1.0;" x1="409" x2="599" y1="150.8937" y2="150.8937"/></g><!--class TextQuoteSelector--><g id="elem_TextQuoteSelector"><rect codeLine="172" fill="#C0C0C0" height="58.5938" id="TextQuoteSelector" rx="2.5" ry="2.5" style="stroke:#181818;stroke-width:0.5;" width="302" x="660" y="684.41"/><text fill="#000000" font-family="sans-serif" font-size="14" lengthAdjust="spacing" textLength="296" x="663" y="702.4051">TextQuoteSelector (oa:TextQuoteSelector)</text><line style="stroke:#181818;stroke-width:0.5;" x1="661" x2="961" y1="710.7069" y2="710.7069"/><line style="stroke:#181818;stroke-width:1.0;" x1="661" x2="961" y1="718.7069" y2="718.7069"/><text fill="#000000" font-family="sans-serif" font-size="14" lengthAdjust="spacing" textLength="37" x="666" y="735.702">exact</text></g><!--class TextPositionSelector--><g id="elem_TextPositionSelector"><rect codeLine="177" fill="#C0C0C0" height="74.8906" id="TextPositionSelector" rx="2.5" ry="2.5" style="stroke:#181818;stroke-width:0.5;" width="326" x="299" y="676.26"/><text fill="#000000" font-family="sans-serif" font-size="14" lengthAdjust="spacing" textLength="320" x="302" y="694.2551">TextPositionSelector (oa:TextPositionSelector)</text><line style="stroke:#181818;stroke-width:0.5;" x1="300" x2="624" y1="702.5569" y2="702.5569"/><line style="stroke:#181818;stroke-width:1.0;" x1="300" x2="624" y1="710.5569" y2="710.5569"/><text fill="#000000" font-family="sans-serif" font-size="14" lengthAdjust="spacing" textLength="31" x="305" y="727.552">start</text><text fill="#000000" font-family="sans-serif" font-size="14" lengthAdjust="spacing" textLength="27" x="305" y="743.8489">end</text></g><!--class SpecificResource_Entity_Body_Classifying--><g id="elem_SpecificResource_Entity_Body_Classifying"><rect codeLine="183" fill="#C0C0C0" height="58.5938" id="SpecificResource_Entity_Body_Classifying" rx="2.5" ry="2.5" style="stroke:#181818;stroke-width:0.5;" width="282" x="46" y="409.08"/><text fill="#000000" font-family="sans-serif" font-size="14" lengthAdjust="spacing" textLength="276" x="49" y="427.0751">SpecificResource (oa:SpecificResource)</text><line style="stroke:#181818;stroke-width:0.5;" x1="47" x2="327" y1="435.3769" y2="435.3769"/><line style="stroke:#181818;stroke-width:1.0;" x1="47" x2="327" y1="443.3769" y2="443.3769"/><text fill="#000000" font-family="sans-serif" font-size="14" lengthAdjust="spacing" textLength="147" x="52" y="460.372">purpose: "classifying"</text></g><!--class SpecificResource_Entity_Body_Identifying--><g id="elem_SpecificResource_Entity_Body_Identifying"><rect codeLine="188" fill="#C0C0C0" height="58.5938" id="SpecificResource_Entity_Body_Identifying" rx="2.5" ry="2.5" style="stroke:#181818;stroke-width:0.5;" width="282" x="680" y="409.08"/><text fill="#000000" font-family="sans-serif" font-size="14" lengthAdjust="spacing" textLength="276" x="683" y="427.0751">SpecificResource (oa:SpecificResource)</text><line style="stroke:#181818;stroke-width:0.5;" x1="681" x2="961" y1="435.3769" y2="435.3769"/><line style="stroke:#181818;stroke-width:1.0;" x1="681" x2="961" y1="443.3769" y2="443.3769"/><text fill="#000000" font-family="sans-serif" font-size="14" lengthAdjust="spacing" textLength="147" x="686" y="460.372">purpose: "identifying"</text></g><!--class SpecificResource_Entity_Target--><g id="elem_SpecificResource_Entity_Target"><rect codeLine="193" fill="#C0C0C0" height="42.2969" id="SpecificResource_Entity_Target" rx="2.5" ry="2.5" style="stroke:#181818;stroke-width:0.5;" width="282" x="363" y="417.23"/><text fill="#000000" font-family="sans-serif" font-size="14" lengthAdjust="spacing" textLength="276" x="366" y="435.2251">SpecificResource (oa:SpecificResource)</text><line style="stroke:#181818;stroke-width:0.5;" x1="364" x2="644" y1="443.5269" y2="443.5269"/><line style="stroke:#181818;stroke-width:1.0;" x1="364" x2="644" y1="451.5269" y2="451.5269"/></g><!--class Source_Tag_Entity--><g id="elem_Source_Tag_Entity"><rect codeLine="197" fill="#ADD8E6" height="74.8906" id="Source_Tag_Entity" rx="2.5" ry="2.5" style="stroke:#181818;stroke-width:0.5;" width="190" x="74" y="676.26"/><text fill="#000000" font-family="sans-serif" font-size="14" lengthAdjust="spacing" textLength="170" x="84" y="694.2551">Concept (skos:Concept)</text><line style="stroke:#181818;stroke-width:0.5;" x1="75" x2="263" y1="702.5569" y2="702.5569"/><ellipse cx="85" cy="716.2053" fill="#000000" rx="3" ry="3" style="stroke:#000000;stroke-width:1.0;"/><text fill="#000000" font-family="sans-serif" font-size="14" lengthAdjust="spacing" textLength="23" x="94" y="719.552">URI</text><line style="stroke:#181818;stroke-width:1.0;" x1="75" x2="263" y1="726.8538" y2="726.8538"/><text fill="#000000" font-family="sans-serif" font-size="14" lengthAdjust="spacing" textLength="178" x="80" y="743.8489">prefLabel (skos:prefLabel)</text></g><!--class Archive--><g id="elem_Archive"><rect codeLine="5" fill="#F1F1F1" height="58.5938" id="Archive" rx="2.5" ry="2.5" style="stroke:#181818;stroke-width:0.5;" width="267" x="2539.5" y="236.19"/><text fill="#000000" font-family="sans-serif" font-size="14" lengthAdjust="spacing" textLength="261" x="2542.5" y="254.1851">Archive (schema:ArchiveOrganization)</text><line style="stroke:#181818;stroke-width:0.5;" x1="2540.5" x2="2805.5" y1="262.4869" y2="262.4869"/><line style="stroke:#181818;stroke-width:1.0;" x1="2540.5" x2="2805.5" y1="270.4869" y2="270.4869"/><text fill="#000000" font-family="sans-serif" font-size="14" lengthAdjust="spacing" textLength="152" x="2545.5" y="287.482">name (schema:name)</text></g><!--class Collection--><g id="elem_Collection"><rect codeLine="10" fill="#F5DEB3" height="91.1875" id="Collection" rx="2.5" ry="2.5" style="stroke:#181818;stroke-width:0.5;" width="216" x="2565" y="392.78"/><text fill="#000000" font-family="sans-serif" font-size="14" lengthAdjust="spacing" textLength="210" x="2568" y="410.7751">Collection (schema:Collection)</text><line style="stroke:#181818;stroke-width:0.5;" x1="2566" x2="2780" y1="419.0769" y2="419.0769"/><ellipse cx="2576" cy="432.7253" fill="#000000" rx="3" ry="3" style="stroke:#000000;stroke-width:1.0;"/><text fill="#000000" font-family="sans-serif" font-size="14" lengthAdjust="spacing" textLength="23" x="2585" y="436.072">URI</text><line style="stroke:#181818;stroke-width:1.0;" x1="2566" x2="2780" y1="443.3738" y2="443.3738"/><text fill="#000000" font-family="sans-serif" font-size="14" lengthAdjust="spacing" textLength="152" x="2571" y="460.3689">name (schema:name)</text><text fill="#000000" font-family="sans-serif" font-size="14" lengthAdjust="spacing" textLength="4" x="2571" y="476.6657">&#160;</text></g><!--link Diary to Scan--><g id="link_Diary_Scan"><path codeLine="40" d="M2698.36,767.76 C2706.33,783.15 2715.53,799.76 2725,814.45 C2739.95,837.65 2755.056,857.39 2770.846,876.65 " fill="none" id="Diary-to-Scan" style="stroke:#181818;stroke-width:1.0;"/><polygon fill="#181818" points="2774.65,881.29,2772.0373,871.794,2771.48,877.4233,2765.8507,876.866,2774.65,881.29" style="stroke:#181818;stroke-width:1.0;"/><text fill="#000000" font-family="sans-serif" font-size="13" lengthAdjust="spacing" textLength="95" x="2726" y="810.5169">schema:image</text></g><!--link Annotation_Region to SpecificResource_Region_Body--><g id="link_Annotation_Region_SpecificResource_Region_Body"><path codeLine="99" d="M1744,175.53 C1744,239.6 1744,349.37 1744,402.86 " fill="none" id="Annotation_Region-to-SpecificResource_Region_Body" style="stroke:#181818;stroke-width:1.0;"/><polygon fill="#181818" points="1744,408.86,1748,399.86,1744,403.86,1740,399.86,1744,408.86" style="stroke:#181818;stroke-width:1.0;"/><text fill="#000000" font-family="sans-serif" font-size="13" lengthAdjust="spacing" textLength="75" x="1745" y="270.0469">oa:hasBody</text></g><!--link Annotation_Region to SpecificResource_Region_Target--><g id="link_Annotation_Region_SpecificResource_Region_Target"><path codeLine="100" d="M1790.43,175.53 C1856.64,239.6 1971.9585,351.1974 2027.2285,404.6874 " fill="none" id="Annotation_Region-to-SpecificResource_Region_Target" style="stroke:#181818;stroke-width:1.0;"/><polygon fill="#181818" points="2031.54,408.86,2027.8545,399.7267,2027.9471,405.3828,2022.291,405.4754,2031.54,408.86" style="stroke:#181818;stroke-width:1.0;"/><text fill="#000000" font-family="sans-serif" font-size="13" lengthAdjust="spacing" textLength="84" x="1915" y="270.0469">oa:hasTarget</text></g><!--link SpecificResource_Region_Target to Scan--><g id="link_SpecificResource_Region_Target_Scan"><path codeLine="102" d="M2202.24,451.98 C2400.89,470.91 2743.66,508.34 2788,544.97 C2886.7,626.5 2845.6569,798.4781 2820.9069,875.4381 " fill="none" id="SpecificResource_Region_Target-to-Scan" style="stroke:#181818;stroke-width:1.0;"/><polygon fill="#181818" points="2819.07,881.15,2825.6333,873.8068,2820.6008,876.3901,2818.0175,871.3575,2819.07,881.15" style="stroke:#181818;stroke-width:1.0;"/><text fill="#000000" font-family="sans-serif" font-size="13" lengthAdjust="spacing" textLength="88" x="2833" y="605.0369">oa:hasSource</text></g><!--link SpecificResource_Region_Target to Selector_Region--><g id="link_SpecificResource_Region_Target_Selector_Region"><path codeLine="103" d="M2061,468.11 C2061,515.67 2061,605.12 2061,661.69 " fill="none" id="SpecificResource_Region_Target-to-Selector_Region" style="stroke:#181818;stroke-width:1.0;"/><polygon fill="#181818" points="2061,667.69,2065,658.69,2061,662.69,2057,658.69,2061,667.69" style="stroke:#181818;stroke-width:1.0;"/><text fill="#000000" font-family="sans-serif" font-size="13" lengthAdjust="spacing" textLength="96" x="2062" y="558.0369">oa:hasSelector</text></g><!--link SpecificResource_Region_Body to Source_Tag_Region--><g id="link_SpecificResource_Region_Body_Source_Tag_Region"><path codeLine="111" d="M1744,468.11 C1744,518.14 1744,615.15 1744,670.17 " fill="none" id="SpecificResource_Region_Body-to-Source_Tag_Region" style="stroke:#181818;stroke-width:1.0;"/><polygon fill="#181818" points="1744,676.17,1748,667.17,1744,671.17,1740,667.17,1744,676.17" style="stroke:#181818;stroke-width:1.0;"/><text fill="#000000" font-family="sans-serif" font-size="13" lengthAdjust="spacing" textLength="88" x="1745" y="558.0369">oa:hasSource</text></g><!--reverse link TextualBody_Line to Entry--><g id="link_TextualBody_Line_Entry"><path codeLine="129" d="M1171.4321,746.5074 C1194.3621,760.6974 1218.64,773.66 1247,783.3 C1359.72,821.62 1394.97,800.6 1512,822.45 C1884.36,891.98 2319.94,997.32 2527.7,1049.06 " fill="none" id="TextualBody_Line-backto-Entry" style="stroke:#181818;stroke-width:1.0;"/><polygon fill="#181818" points="1166.33,743.35,1171.8782,751.4874,1170.5817,745.9811,1176.088,744.6847,1166.33,743.35" style="stroke:#181818;stroke-width:1.0;"/><text fill="#000000" font-family="sans-serif" font-size="13" lengthAdjust="spacing" textLength="80" x="2310" y="923.4669">schema:text</text></g><!--link Annotation_Line to TextualBody_Line--><g id="link_Annotation_Line_TextualBody_Line"><path codeLine="142" d="M1359.75,484.2 C1301.31,540.85 1206.7585,632.4942 1157.7185,680.0242 " fill="none" id="Annotation_Line-to-TextualBody_Line" style="stroke:#181818;stroke-width:1.0;"/><polygon fill="#181818" points="1153.41,684.2,1162.6565,680.8086,1157.0004,680.7202,1157.0888,675.064,1153.41,684.2" style="stroke:#181818;stroke-width:1.0;"/><text fill="#000000" font-family="sans-serif" font-size="13" lengthAdjust="spacing" textLength="75" x="1295" y="558.0369">oa:hasBody</text></g><!--link Annotation_Line to SpecificResource_Line--><g id="link_Annotation_Line_SpecificResource_Line"><path codeLine="143" d="M1406,484.2 C1406,544.18 1406,642.07 1406,686.07 " fill="none" id="Annotation_Line-to-SpecificResource_Line" style="stroke:#181818;stroke-width:1.0;"/><polygon fill="#181818" points="1406,692.07,1410,683.07,1406,687.07,1402,683.07,1406,692.07" style="stroke:#181818;stroke-width:1.0;"/><text fill="#000000" font-family="sans-serif" font-size="13" lengthAdjust="spacing" textLength="84" x="1407" y="558.0369">oa:hasTarget</text></g><!--link SpecificResource_Line to Scan--><g id="link_SpecificResource_Line_Scan"><path codeLine="145" d="M1448.34,735.29 C1484.3,751.64 1537.75,773.37 1587,783.3 C1646.45,795.3 2620.79,802.32 2678,822.45 C2712.52,834.6 2741.0039,855.5833 2764.8239,876.9533 " fill="none" id="SpecificResource_Line-to-Scan" style="stroke:#181818;stroke-width:1.0;"/><polygon fill="#181818" points="2769.29,880.96,2765.262,871.9725,2765.5683,877.6211,2759.9197,877.9273,2769.29,880.96" style="stroke:#181818;stroke-width:1.0;"/><text fill="#000000" font-family="sans-serif" font-size="13" lengthAdjust="spacing" textLength="88" x="2588" y="810.5169">oa:hasSource</text></g><!--link SpecificResource_Line to Selector_Line--><g id="link_SpecificResource_Line_Selector_Line"><path codeLine="146" d="M1406,735.13 C1406,792.36 1406,949.35 1406,1029.01 " fill="none" id="SpecificResource_Line-to-Selector_Line" style="stroke:#181818;stroke-width:1.0;"/><polygon fill="#181818" points="1406,1035.01,1410,1026.01,1406,1030.01,1402,1026.01,1406,1035.01" style="stroke:#181818;stroke-width:1.0;"/><text fill="#000000" font-family="sans-serif" font-size="13" lengthAdjust="spacing" textLength="96" x="1407" y="923.4669">oa:hasSelector</text></g><!--link Annotation_Region to Annotation_Line--><g id="link_Annotation_Region_Annotation_Line"><path codeLine="148" d="M1694.49,175.53 C1630.5,233.61 1524.1426,330.1372 1460.0826,388.2872 " fill="none" id="Annotation_Region-to-Annotation_Line" style="stroke:#181818;stroke-width:1.0;"/><polygon fill="#181818" points="1455.64,392.32,1464.9924,389.2326,1459.3422,388.9594,1459.6154,383.3091,1455.64,392.32" style="stroke:#181818;stroke-width:1.0;"/><text fill="#000000" font-family="sans-serif" font-size="13" lengthAdjust="spacing" textLength="55" x="1627" y="270.0469">as:items</text></g><!--link Annotation_Entry to SpecificResource_Region_Target--><g id="link_Annotation_Entry_SpecificResource_Region_Target"><path codeLine="160" d="M2318.07,167.29 C2259.18,229.16 2145.5168,348.5741 2092.3168,404.4641 " fill="none" id="Annotation_Entry-to-SpecificResource_Region_Target" style="stroke:#181818;stroke-width:1.0;"/><polygon fill="#181818" points="2088.18,408.81,2097.2824,405.0489,2091.6273,405.1884,2091.4879,399.5333,2088.18,408.81" style="stroke:#181818;stroke-width:1.0;"/><text fill="#000000" font-family="sans-serif" font-size="13" lengthAdjust="spacing" textLength="84" x="2252" y="270.0469">oa:hasTarget</text></g><!--link Annotation_Entry to Entry--><g id="link_Annotation_Entry_Entry"><path codeLine="161" d="M2447.86,134.74 C2761.46,149.06 3745,199.18 3745,264.48 C3745,264.48 3745,264.48 3745,919.9 C3745,957.64 3739.17,975.05 3708,996.34 C3632.27,1048.09 3040.2378,1069.7465 2778.2478,1076.8865 " fill="none" id="Annotation_Entry-to-Entry" style="stroke:#181818;stroke-width:1.0;"/><polygon fill="#181818" points="2772.25,1077.05,2781.3556,1080.8033,2777.2481,1076.9138,2781.1377,1072.8063,2772.25,1077.05" style="stroke:#181818;stroke-width:1.0;"/><text fill="#000000" font-family="sans-serif" font-size="13" lengthAdjust="spacing" textLength="75" x="3746" y="558.0369">oa:hasBody</text></g><!--link SpecificResource_Entity_Body_Classifying to Source_Tag_Entity--><g id="link_SpecificResource_Entity_Body_Classifying_Source_Tag_Entity"><path codeLine="203" d="M185.11,468.11 C181.81,518.14 175.4239,615.1629 171.8039,670.1829 " fill="none" id="SpecificResource_Entity_Body_Classifying-to-Source_Tag_Entity" style="stroke:#181818;stroke-width:1.0;"/><polygon fill="#181818" points="171.41,676.17,175.9922,667.452,171.7383,671.1808,168.0095,666.9268,171.41,676.17" style="stroke:#181818;stroke-width:1.0;"/><text fill="#000000" font-family="sans-serif" font-size="13" lengthAdjust="spacing" textLength="88" x="181" y="558.0369">oa:hasSource</text></g><!--reverse link External to SpecificResource_Entity_Body_Identifying--><g id="link_External_SpecificResource_Entity_Body_Identifying"><path codeLine="204" d="M3680.7662,832.8321 C3680.4725,832.2326 3682.306,836.1568 3681.997,835.5661 C3679.525,830.8406 3676.5563,826.41 3673,822.45 C3397.58,515.76 3194.34,614.3 2788,544.97 C2005.07,411.39 1788.71,593.11 1002,483.97 C975.71,480.32 947.7,474.43 921.75,468.12 " fill="none" id="External-backto-SpecificResource_Entity_Body_Identifying" style="stroke:#181818;stroke-width:1.0;"/><polygon fill="#181818" points="3683.3357,838.2541,3683.0961,828.4082,3681.1944,833.7358,3675.8668,831.8342,3683.3357,838.2541" style="stroke:#181818;stroke-width:1.0;"/><text fill="#000000" font-family="sans-serif" font-size="13" lengthAdjust="spacing" textLength="88" x="3348" y="605.0369">oa:hasSource</text></g><!--link Annotation_Entity to SpecificResource_Entity_Body_Classifying--><g id="link_Annotation_Entity_SpecificResource_Entity_Body_Classifying"><path codeLine="206" d="M474.46,159.18 C414.06,217.64 281.3316,346.0875 220.8916,404.5775 " fill="none" id="Annotation_Entity-to-SpecificResource_Entity_Body_Classifying" style="stroke:#181818;stroke-width:1.0;"/><polygon fill="#181818" points="216.58,408.75,225.8291,405.3656,220.173,405.2729,220.2658,399.6168,216.58,408.75" style="stroke:#181818;stroke-width:1.0;"/><text fill="#000000" font-family="sans-serif" font-size="13" lengthAdjust="spacing" textLength="75" x="394" y="270.0469">oa:hasBody</text></g><!--link Annotation_Entity to SpecificResource_Entity_Body_Identifying--><g id="link_Annotation_Entity_SpecificResource_Entity_Body_Identifying"><path codeLine="207" d="M533.54,159.18 C593.94,217.64 726.6684,346.0875 787.1084,404.5775 " fill="none" id="Annotation_Entity-to-SpecificResource_Entity_Body_Identifying" style="stroke:#181818;stroke-width:1.0;"/><polygon fill="#181818" points="791.42,408.75,787.7342,399.6168,787.827,405.2729,782.1709,405.3656,791.42,408.75" style="stroke:#181818;stroke-width:1.0;"/><text fill="#000000" font-family="sans-serif" font-size="13" lengthAdjust="spacing" textLength="75" x="675" y="270.0469">oa:hasBody</text></g><!--link Annotation_Entity to SpecificResource_Entity_Target--><g id="link_Annotation_Entity_SpecificResource_Entity_Target"><path codeLine="208" d="M504,159.18 C504,220.61 504,357.95 504,411.08 " fill="none" id="Annotation_Entity-to-SpecificResource_Entity_Target" style="stroke:#181818;stroke-width:1.0;"/><polygon fill="#181818" points="504,417.08,508,408.08,504,412.08,500,408.08,504,417.08" style="stroke:#181818;stroke-width:1.0;"/><text fill="#000000" font-family="sans-serif" font-size="13" lengthAdjust="spacing" textLength="84" x="505" y="270.0469">oa:hasTarget</text></g><!--link SpecificResource_Entity_Target to TextQuoteSelector--><g id="link_SpecificResource_Entity_Target_TextQuoteSelector"><path codeLine="210" d="M527.07,459.92 C581.32,508.21 712.5483,625.0607 774.6283,680.3207 " fill="none" id="SpecificResource_Entity_Target-to-TextQuoteSelector" style="stroke:#181818;stroke-width:1.0;"/><polygon fill="#181818" points="779.11,684.31,775.047,675.3382,775.3753,680.9856,769.728,681.3138,779.11,684.31" style="stroke:#181818;stroke-width:1.0;"/><text fill="#000000" font-family="sans-serif" font-size="13" lengthAdjust="spacing" textLength="96" x="639" y="558.0369">oa:hasSelector</text></g><!--link SpecificResource_Entity_Target to TextPositionSelector--><g id="link_SpecificResource_Entity_Target_TextPositionSelector"><path codeLine="211" d="M500.84,459.92 C493.77,505.98 477.4618,612.0897 468.5118,670.2997 " fill="none" id="SpecificResource_Entity_Target-to-TextPositionSelector" style="stroke:#181818;stroke-width:1.0;"/><polygon fill="#181818" points="467.6,676.23,472.9213,667.9424,468.3598,671.2881,465.0142,666.7267,467.6,676.23" style="stroke:#181818;stroke-width:1.0;"/><text fill="#000000" font-family="sans-serif" font-size="13" lengthAdjust="spacing" textLength="96" x="489" y="558.0369">oa:hasSelector</text></g><!--link SpecificResource_Entity_Target to TextualBody_Line--><g id="link_SpecificResource_Entity_Target_TextualBody_Line"><path codeLine="212" d="M573.13,459.94 C667.26,489.13 839.87,546.9 978,616.97 C1016.25,636.37 1051.937,660.0934 1080.577,680.5434 " fill="none" id="SpecificResource_Entity_Target-to-TextualBody_Line" style="stroke:#181818;stroke-width:1.0;"/><polygon fill="#181818" points="1085.46,684.03,1080.46,675.5447,1081.3909,681.1245,1075.8111,682.0554,1085.46,684.03" style="stroke:#181818;stroke-width:1.0;"/><text fill="#000000" font-family="sans-serif" font-size="13" lengthAdjust="spacing" textLength="88" x="857" y="558.0369">oa:hasSource</text></g><!--reverse link Archive to Collection--><g id="link_Archive_Collection"><path codeLine="223" d="M2673,301.09 C2673,327.69 2673,361.75 2673,392.59 " fill="none" id="Archive-backto-Collection" style="stroke:#181818;stroke-width:1.0;"/><polygon fill="#181818" points="2673,295.09,2669,304.09,2673,300.09,2677,304.09,2673,295.09" style="stroke:#181818;stroke-width:1.0;"/><text fill="#000000" font-family="sans-serif" font-size="13" lengthAdjust="spacing" textLength="148" x="2674" y="337.8469">schema:holdingArchive</text></g><!--reverse link Collection to Diary--><g id="link_Collection_Diary"><path codeLine="225" d="M2673,490.2 C2673,538.37 2673,608.85 2673,659.9 " fill="none" id="Collection-backto-Diary" style="stroke:#181818;stroke-width:1.0;"/><polygon fill="#181818" points="2673,484.2,2669,493.2,2673,489.2,2677,493.2,2673,484.2" style="stroke:#181818;stroke-width:1.0;"/><text fill="#000000" font-family="sans-serif" font-size="13" lengthAdjust="spacing" textLength="105" x="2674" y="558.0369">schema:isPartOf</text></g><!--reverse link Diary to Entry--><g id="link_Diary_Entry"><path codeLine="226" d="M2610.9534,772.4439 C2597.1934,788.4839 2588.32,802.61 2581,822.45 C2554.25,894.96 2554.86,923.61 2581,996.34 C2585.96,1010.16 2594.31,1023.31 2603.51,1034.93 " fill="none" id="Diary-backto-Entry" style="stroke:#181818;stroke-width:1.0;"/><polygon fill="#181818" points="2614.86,767.89,2605.9641,772.1165,2611.6045,771.6849,2612.036,777.3253,2614.86,767.89" style="stroke:#181818;stroke-width:1.0;"/><text fill="#000000" font-family="sans-serif" font-size="13" lengthAdjust="spacing" textLength="105" x="2582" y="923.4669">schema:isPartOf</text></g><!--link Diary to Person--><g id="link_Diary_Person"><path codeLine="228" d="M2795.19,762.32 C2836.51,779.74 2882.44,800.58 2923,822.45 C2955.36,839.9 2984.8717,858.9922 3012.0717,877.7622 " fill="none" id="Diary-to-Person" style="stroke:#181818;stroke-width:1.0;"/><polygon fill="#181818" points="3017.01,881.17,3011.8744,872.7661,3012.8947,878.3302,3007.3307,879.3505,3017.01,881.17" style="stroke:#181818;stroke-width:1.0;"/><text fill="#000000" font-family="sans-serif" font-size="13" lengthAdjust="spacing" textLength="97" x="2904" y="810.5169">schema:author</text></g><!--link Diary to Person--><g id="link_Diary_Person"><path codeLine="229" d="M2795.36,719.5 C2864.87,727.95 2949.76,748.6 3010,797.45 C3035.96,818.5 3049.3079,848.2415 3057.5579,875.2615 " fill="none" id="Diary-to-Person-1" style="stroke:#181818;stroke-width:1.0;"/><polygon fill="#181818" points="3059.31,881,3060.5075,871.2242,3057.8499,876.2179,3052.8562,873.5604,3059.31,881" style="stroke:#181818;stroke-width:1.0;"/><text fill="#000000" font-family="sans-serif" font-size="13" lengthAdjust="spacing" textLength="92" x="3026" y="810.5169">schema:about</text></g><!--SRC=[nLZRRjmW47ttLw3jGv9A_W4_L4gtLHKfKj8qLHuZrcPj6cmim6dIglzUOC3WswwRLEsgZM3Cd3aCp06xeWL1EHKv8qboicLOIYAJ93SDT2xoYZuIX2NQ-FQfp2jIuyprhqI96_e3AygRimtwcQHfqk0wZ3ETi-INXznonaXkHblKgEiTWadZlVbU4Qmqx5lqzUPY0ToWjpX_m2L17oWMb4ZjaI048OtfsKQ3bdT-p_c32I4ngtNydze1eY2auo0q4maXtAcAYzuCNVEWm2gCLgHkkS1ion-9qBJCW5_wVy_fOwCS9sZranTwkZgjTrnORggYKZ6oajoVSVYIOrW4s_1k5xKUUxNxffV0462qh5Gf25cR81S2KfscxsoO3BbHrA2R4OD5-_YaY6WmWuJuZfuDDZlAxPnh8gJRDQxfGqFNi2smU904UxxzfZ717Cmbpt6__VfE3yLmJiP88o30YJU-nHeOFDweF0uIrFzEq1tPeVEcuGfmfEhs-v2eBMyKfWqH9YtUU7T-VqDAJyCr0yOcheLWZdsYWATWjdL1sQEDXEpFBxtvsUKtFqMUr2U1cuxfibFF6Te8wxznpskkTxD5pf32PKcRSh8DMvBJFSrlYEITo8aZTl-U5r0Xum7ebEDiR1mHjWJRJhHSmlWAosledgqbS8j5ITI_eK2Cv74HBugtGIpNcOkHysRFHIrlEJejSbqyjSo2pSHwnApJ74Inpspp368x2jCzaTgwFR0k6OBvcFOimc48oAm7WHvmER8MQH0KyFrYHwrr76Qvnt3cmO80o2qkuoNHvPUJLkdgVk0oSxrU9NScoHEHR0NPN-8TOSwhxqURu6090FKndr42OZNLUd2fDG84pZIEQq4_FbO2Otov3Z3jFQS26zcrBICrQPGMWysu4curK8UPcNbW5HbjDKJz2K57wMZXmRcRTYQxuw3zSMMcTL0gUeelLeXv7GYu_q45RF1qFZ5BTHzyPdEqgjOZZ5Kb7esFypPVrmigDvf2ffEUKNrrakEI2ZSskDf0_tXf1R-ujgnrRN4DoiS6C6c0g6u1nrDqk_i58ZmFOfk3rP-cHzUzlz6QvghKU9yuDpf8w4vo53BaocSW7PyxhaXVCruxXbQl80FhaewG9vohEP6wvf8QWfDWamS-tlZ1KaYfi50Gl2cENbOWYVQekD_2tdZMmlfYKHehQDXoptDwVP3FHM5K_g_peG5sDPzNNkPcnJgSoT5E_cTtXAM57zyNODnnDLrQk3HbLW7SQza4QA8P9XFpohD0UVbKMOqM4NuTsXzSJOSxgpyl1x8oSnQjnHdBnIkWvexmwE88Vqvk2BDvqaTVz5b6tv3U-Gz1_RseugpGgNRc975l-_Oo5Np3Mx-yrf9sjK_YIvVrcGv9mfS3UA_lXy2tbWFFTxnJlm40]--></g></svg>